<?xml version="1.0" encoding="UTF-8"?>
<svg width="285px" height="263px" viewBox="0 0 285 263" version="1.1" xmlns="http://www.w3.org/2000/svg" xmlns:xlink="http://www.w3.org/1999/xlink">
    <!-- Generator: Sketch 52.2 (67145) - http://www.bohemiancoding.com/sketch -->
    <title>grafik copy 2</title>
    <desc>Created with Sketch.</desc>
    <g id="Page-1" stroke="none" stroke-width="1" fill="none" fill-rule="evenodd">
        <g id="grafik-copy-2" transform="translate(2.000000, 2.000000)">
            <path d="M209,195.38 C209,195.38 237.43,199.94 260.71,211.82 C261.708339,212.3186 262.900925,212.221866 263.805856,211.568888 C264.710788,210.915909 265.1785,209.814608 265.02,208.71 L261.91,187.71 L278.91,178.46 C279.890018,177.921077 280.488881,176.881742 280.46366,175.763602 C280.438439,174.645461 279.793322,173.634186 278.79,173.14 C271.48,169.59 258.48,163.71 252.91,163.71" id="Shape" stroke="#6E707E" stroke-width="5" fill="#FFFFFF" fill-rule="nonzero"></path>
            <path d="M71.9,195.38 C71.9,195.38 43.48,199.94 20.2,211.82 C18.730006,212.547382 16.9483448,211.959434 16.2,210.5 C15.9126645,209.935879 15.8111549,209.295319 15.91,208.67 L19.03,187.67 L2.05,178.42 C1.06998167,177.881077 0.471118536,176.841742 0.496339747,175.723602 C0.521560957,174.605461 1.16667846,173.594186 2.17,173.1 C9.48,169.55 22.42,163.67 28,163.67" id="Shape" stroke="#6E707E" stroke-width="5" fill="#FFFFFF" fill-rule="nonzero"></path>
            <path d="M61.48,171.15 C61.48,171.15 30,175.67 34,183.67 C38.62,192.9 66.5,185.17 66.5,185.17 L61.48,171.15 Z" id="Shape" stroke="#6E707E" stroke-width="5" fill="#CAD1E3" fill-rule="nonzero"></path>
            <path d="M219.48,172.15 C219.48,172.15 250.63,176.65 246.63,184.65 C242.01,193.88 214.63,185.65 214.63,185.65 L219.48,172.15 Z" id="Shape" stroke="#6E707E" stroke-width="5" fill="#CAD1E3" fill-rule="nonzero"></path>
            <path d="M259,72.45 C257,60.18 245.74,33.95 239.71,30.87 C268.36,74.64 256.91,106.18 248.99,117.87 C253,117.45 262.48,93.79 259,72.45 Z" id="Shape" fill="#CAD1E3" fill-rule="nonzero"></path>
            <path d="M259.72,102.15 C262.18,103.32 267.14,103.83 271.72,95.87 C272.11,95.19 272.49,94.45 272.88,93.63 C271.621374,93.6537588 270.365521,93.7572998 269.12,93.94 C261.07,95.13 259.66,99.56 259.72,102.15 Z" id="Shape" fill="#CAD1E3" fill-rule="nonzero"></path>
            <path d="M264.73,70.93 C263.171282,71.9386221 261.992658,73.43741 261.38,75.19 C261.019081,76.3253121 260.960486,77.5351228 261.21,78.7 C262.685387,79.0882328 264.248217,78.9720765 265.65,78.37 C267.352965,77.5738785 268.777771,76.2849347 269.74,74.67 C270.706338,73.1720972 271.466506,71.5508543 272,69.85 C272.2,69.23 272.39,68.58 272.57,67.85 C271.71,68.0433333 270.91,68.2433333 270.17,68.45 C268.235398,68.9795681 266.398595,69.8169343 264.73,70.93 Z" id="Shape" fill="#CAD1E3" fill-rule="nonzero"></path>
            <path d="M263.07,84.91 C262.182794,85.7623298 261.525727,86.8253322 261.16,88 C260.878783,88.953269 260.803786,89.9554946 260.94,90.94 C262.309643,91.4011712 263.789839,91.4186676 265.17,90.99 C266.418703,90.5925484 267.558453,89.9114365 268.5,89 C270.081225,87.3425797 271.318379,85.3882827 272.14,83.25 C272.43,82.56 272.72,81.81 272.98,81 C271.86,81.16 270.84,81.36 269.91,81.58 C267.373181,82.0581869 265.01109,83.2081524 263.07,84.91 Z" id="Shape" fill="#CAD1E3" fill-rule="nonzero"></path>
            <path d="M228.13,17.57 C229.91,28.8 235.45,29.88 238.36,29.41 C239.25,26.6 239,21 228.13,17.57 Z" id="Shape" fill="#CAD1E3" fill-rule="nonzero"></path>
            <path d="M245.48,34.46 C248.35,33.78 253.06,30.65 250.41,19.59 C241.63,26.89 243.53,32.2 245.48,34.46 Z" id="Shape" fill="#CAD1E3" fill-rule="nonzero"></path>
            <path d="M256.48,55.35 C259.42,55.44 264.78,53.64 265.09,42.27 C254.73,47.05 255.2,52.67 256.48,55.35 Z" id="Shape" fill="#CAD1E3" fill-rule="nonzero"></path>
            <path d="M254.19,102.61 C253.84,99.68 251.25,94.61 239.97,96.07 C246.25,105.55 251.73,104.24 254.19,102.61 Z" id="Shape" fill="#CAD1E3" fill-rule="nonzero"></path>
            <path d="M251.17,45.32 C254.11,45.12 259.26,42.81 258.47,31.46 C248.66,37.22 249.67,42.78 251.17,45.32 Z" id="Shape" fill="#CAD1E3" fill-rule="nonzero"></path>
            <path d="M259.88,60.85 C258.885753,62.5838939 258.695914,64.6648196 259.36,66.55 C261.425848,66.8095323 263.498428,66.1223473 265,64.68 C266.83,62.96 268.48,59.85 269.17,54.38 C263.82,56.26 261.11,58.61 259.88,60.85 Z" id="Shape" fill="#CAD1E3" fill-rule="nonzero"></path>
            <path d="M246.11,50.59 C246.649218,50.0977279 247.108099,49.5241256 247.47,48.89 C246.39,47.27 244.04,45.29 239.88,45.89 C237.837909,46.2581381 235.877452,46.9861142 234.09,48.04 C233.36,48.45 232.6,48.91 231.82,49.44 C234.257566,50.9492093 236.981558,51.9366563 239.82,52.34 C242.07222,52.7141808 244.374651,52.0735999 246.11,50.59 Z" id="Shape" fill="#CAD1E3" fill-rule="nonzero"></path>
            <path d="M242,38.42 C240.5,36.18 236.55,33.24 228.71,37.58 C227.96,38 227.18,38.47 226.36,39.03 C228.852804,40.5772727 231.649494,41.5697565 234.56,41.94 C238.78,42.3 241,40.12 242,38.42 Z" id="Shape" fill="#CAD1E3" fill-rule="nonzero"></path>
            <path d="M251.48,61.05 C251.945294,60.6731562 252.361834,60.23982 252.72,59.76 C251.78,57.92 249.47,55.5 244.72,55.99 C242.479284,56.2895906 240.305327,56.9657824 238.29,57.99 C237.91,58.17 237.53,58.35 237.14,58.56 C239.162667,60.130969 241.438699,61.3450781 243.87,62.15 C247.48,63.19 249.94,62.28 251.48,61.05 Z" id="Shape" fill="#CAD1E3" fill-rule="nonzero"></path>
            <path d="M254.16,82.8 C254.930784,82.4975824 255.641802,82.0608142 256.26,81.51 C255.962386,80.441888 255.417721,79.4587497 254.67,78.64 C254.097006,78.0233166 253.42003,77.5121998 252.67,77.13 C250.384625,76.1203594 247.851295,75.8106529 245.39,76.24 C244.000937,76.4071454 242.626853,76.6812935 241.28,77.06 C247,83.52 251.41,83.87 254.16,82.8 Z" id="Shape" fill="#CAD1E3" fill-rule="nonzero"></path>
            <path d="M255.16,70.55 C254.149314,67.951721 251.722343,66.1763644 248.94,66 C246.69,65.72 243.72,66.07 239.8,67.55 L240.38,68.08 C241.566139,69.1489152 242.848222,70.1062935 244.21,70.94 C249.94,74.26 253.53,72.3 255.16,70.55 Z" id="Shape" fill="#CAD1E3" fill-rule="nonzero"></path>
            <path d="M255.63,92.12 C255.28,89.19 252.68,84.12 241.4,85.58 C247.69,95.06 253.17,93.76 255.63,92.12 Z" id="Shape" fill="#CAD1E3" fill-rule="nonzero"></path>
            <path d="M25.35,72.45 C27.35,60.18 38.62,33.95 44.65,30.87 C16,74.64 27.45,106.18 35.37,117.87 C31.31,117.45 21.82,93.79 25.35,72.45 Z" id="Shape" fill="#CAD1E3" fill-rule="nonzero"></path>
            <path d="M24.61,102.15 C22.15,103.32 17.19,103.83 12.61,95.87 C12.22,95.19 11.84,94.45 11.45,93.63 C12.7086667,93.6529463 13.9645712,93.7564916 15.21,93.94 C23.26,95.13 24.67,99.56 24.61,102.15 Z" id="Shape" fill="#CAD1E3" fill-rule="nonzero"></path>
            <path d="M19.6,70.93 C21.1832213,71.9238064 22.3820115,73.42582 23,75.19 C23.3708585,76.3235014 23.4295818,77.5359645 23.17,78.7 C21.6945422,79.087459 20.1319673,78.9713216 18.73,78.37 C17.030778,77.5682543 15.6074517,76.2806486 14.64,74.67 C13.6991594,73.165036 12.9563646,71.5450039 12.43,69.85 C12.23,69.23 12.04,68.58 11.86,67.85 C12.72,68.0433333 13.52,68.2433333 14.26,68.45 C16.1612175,68.9856508 17.9641444,69.8229652 19.6,70.93 Z" id="Shape" fill="#CAD1E3" fill-rule="nonzero"></path>
            <path d="M21.26,84.91 C22.1536025,85.7589521 22.8146446,86.8228167 23.18,88 C23.4698667,88.9722417 23.544933,89.995873 23.4,91 C22.0269485,91.46129 20.5435477,91.4787829 19.16,91.05 C17.9096534,90.6326893 16.7731865,89.9309553 15.84,89 C14.2531955,87.3278424 13.0157375,85.3560687 12.2,83.2 C11.92,82.5333333 11.64,81.7833333 11.36,80.95 C12.49,81.11 13.5,81.31 14.43,81.53 C16.9695244,82.0209885 19.3292881,83.1887779 21.26,84.91 Z" id="Shape" fill="#CAD1E3" fill-rule="nonzero"></path>
            <path d="M56.2,17.57 C54.42,28.8 48.88,29.88 46,29.41 C45.08,26.6 45.35,21 56.2,17.57 Z" id="Shape" fill="#CAD1E3" fill-rule="nonzero"></path>
            <path d="M38.9,34.46 C36,33.78 31.33,30.65 34,19.59 C42.71,26.89 40.8,32.2 38.9,34.46 Z" id="Shape" fill="#CAD1E3" fill-rule="nonzero"></path>
            <path d="M27.88,55.35 C24.94,55.44 19.59,53.64 19.28,42.27 C29.6,47.05 29.14,52.67 27.88,55.35 Z" id="Shape" fill="#CAD1E3" fill-rule="nonzero"></path>
            <path d="M30.15,102.61 C30.48,99.67 33.09,94.67 44.37,96.07 C38.09,105.55 32.6,104.24 30.15,102.61 Z" id="Shape" fill="#CAD1E3" fill-rule="nonzero"></path>
            <path d="M33.16,45.32 C30.22,45.12 25.07,42.81 25.87,31.46 C35.67,37.22 34.66,42.78 33.16,45.32 Z" id="Shape" fill="#CAD1E3" fill-rule="nonzero"></path>
            <path d="M24.48,60.85 C25.4761729,62.5837445 25.6625647,64.6669474 24.99,66.55 C22.9087383,66.825494 20.8159116,66.1327979 19.31,64.67 C17.47,62.95 15.82,59.84 15.14,54.37 C20.48,56.26 23.22,58.61 24.48,60.85 Z" id="Shape" fill="#CAD1E3" fill-rule="nonzero"></path>
            <path d="M38.22,50.59 C37.6864416,50.0950289 37.23124,49.5218122 36.87,48.89 C37.95,47.27 40.3,45.29 44.46,45.89 C46.502091,46.2581381 48.4625476,46.9861142 50.25,48.04 C50.97,48.45 51.73,48.91 52.51,49.44 C50.0739681,50.9523737 47.3492923,51.9400687 44.51,52.34 C42.2579308,52.7113746 39.9566695,52.0711191 38.22,50.59 Z" id="Shape" fill="#CAD1E3" fill-rule="nonzero"></path>
            <path d="M42.38,38.42 C43.88,36.18 47.83,33.24 55.67,37.58 C56.42,38 57.2,38.47 58.02,39.03 C55.5287045,40.5804074 52.7313108,41.573141 49.82,41.94 C45.56,42.3 43.34,40.12 42.38,38.42 Z" id="Shape" fill="#CAD1E3" fill-rule="nonzero"></path>
            <path d="M32.87,61.05 C32.4103096,60.6702821 31.99741,60.237241 31.64,59.76 C32.58,57.92 34.89,55.5 39.64,55.99 C41.8807165,56.2895906 44.0546729,56.9657824 46.07,57.99 C46.45,58.17 46.83,58.35 47.22,58.56 C45.1973331,60.130969 42.9213013,61.3450781 40.49,62.15 C36.87,63.19 34.4,62.28 32.87,61.05 Z" id="Shape" fill="#CAD1E3" fill-rule="nonzero"></path>
            <path d="M30.18,82.8 C29.4092158,82.4975824 28.6981978,82.0608142 28.08,81.51 C28.3819145,80.452559 28.9263401,79.4801258 29.67,78.67 C30.2429945,78.0533166 30.9199704,77.5421998 31.67,77.16 C33.9702906,76.1403852 36.5225446,75.8304935 39,76.27 C40.3890628,76.4371454 41.7631465,76.7112935 43.11,77.09 C37.34,83.52 32.93,83.87 30.18,82.8 Z" id="Shape" fill="#CAD1E3" fill-rule="nonzero"></path>
            <path d="M29.17,70.55 C30.1868097,67.9564325 32.6102923,66.1836277 35.39,66 C37.64,65.72 40.61,66.07 44.53,67.55 L43.95,68.08 C42.7676118,69.1534748 41.4850843,70.1111846 40.12,70.94 C34.39,74.26 30.8,72.3 29.17,70.55 Z" id="Shape" fill="#CAD1E3" fill-rule="nonzero"></path>
            <path d="M28.7,92.12 C29.06,89.19 31.7,84.12 42.93,85.58 C36.65,95.06 31.16,93.76 28.7,92.12 Z" id="Shape" fill="#CAD1E3" fill-rule="nonzero"></path>
            <path d="M222.28,53.67 C212.562386,50.7542449 205.903106,41.8156136 205.89,31.67 L205.89,31.61 C205.960529,27.7376303 203.603454,24.2339781 199.99,22.84 L140.88,0.67 L81.77,22.84 C78.1604843,24.2372487 75.8079061,27.7401537 75.88,31.61 L75.88,31.67 C75.8655673,41.8183651 69.2015744,50.7578678 59.48,53.67 C55.5868289,54.8017505 52.8989512,58.3557673 52.87,62.41 L52.87,122.41 C52.87,175.71 81.21,225.41 127.78,251.3 C132.024346,253.678084 136.397778,255.818061 140.88,257.71 C145.368777,255.810722 149.748828,253.664096 154,251.28 C200.57,225.33 228.91,175.67 228.91,122.37 L228.91,62.43 C228.890588,58.3616638 226.190135,54.7936445 222.28,53.67 Z" id="Shape" stroke="#6E707E" stroke-width="5" fill="#FFFFFF" fill-rule="nonzero"></path>
            <path d="M141,11.52 L86.09,32.12 C84.882055,32.6158403 84.1143139,33.8154358 84.17,35.12 C84.1524043,47.4819309 76.0718245,58.3858458 64.25,62 C62.9583522,62.3570976 62.0475794,63.5107431 62,64.85 L62,122.67 C62,172.38 88.53,218.03 131.22,241.79 C134.49,243.61 137.77,245.26 141,246.7 C144.25,245.26 147.53,243.61 150.81,241.79 C193.5,218 220,172.38 220,122.67 L220,64.87 C219.963654,63.5288279 219.060605,62.366608 217.77,62 C205.980654,58.4148222 197.90618,47.5623396 197.86,35.24 C197.85,33.74 141,11.52 141,11.52 Z" id="Shape" fill="#E344A2" fill-rule="nonzero"></path>
            <path d="M141,11.54 L86.09,32.12 C84.882055,32.6158403 84.1143139,33.8154358 84.17,35.12 C84.1524043,47.4819309 76.0718245,58.3858458 64.25,62 C62.9583522,62.3570976 62.0475794,63.5107431 62,64.85 L62,122.67 C62,172.38 88.53,218.03 131.22,241.79 C134.49,243.61 137.77,245.26 141,246.7 L141,11.7 L141,11.54 Z" id="Shape" fill-opacity="0.25" fill="#FFFFFF" fill-rule="nonzero"></path>
            <path d="M228,121 C171,108.17 110.31,108.45 52,121.71 L52,122.39 C52,142.66 54.55,163.09 62.19,181.21 C112.42,169.6 169.35,169.63 219.63,180.92 C227.14,162.92 228,142.49 228,122.39 L228,121 Z" id="Shape" fill="#323A4F" fill-rule="nonzero" opacity="0.15"></path>
            <path d="M247,179.67 C177.78,157.4 102.48,156.17 33.35,178.95 L18.48,133 C16.5961053,127.082892 19.7279749,120.735224 25.57,118.63 L26.04,118.46 C101.6,96 182.77,95.92 256,118.5 C258.881904,119.524622 261.238598,121.652345 262.551422,124.414901 C263.864246,127.177457 264.025609,130.348447 263,133.23 C262.984602,133.284948 262.964529,133.338476 262.94,133.39 L247,179.67 Z" id="Shape" stroke="#6E707E" stroke-width="5" fill="#FFFFFF" fill-rule="nonzero"></path>
            <g id="Group-10" transform="translate(40.000000, 115.000000)" fill="#171933">
                <path d="M23,41.77 C20.26,42.4366667 17.53,43.1033333 14.81,43.77 C11.42,44.64 7.09,42.34 6.03,39.03 C4.09666667,32.91 2.2,26.7866667 0.34,20.66 C-0.66,17.34 2,13.1 5.78,12.13 C8.78,11.35 11.78,10.61 14.85,9.91 C18.64,9.03 23.06,11.55 23.85,14.91 L24.57,18.07 C22.1633333,18.5766667 19.7533333,19.1133333 17.34,19.68 C17.15,18.91 16.96,18.15 16.76,17.38 C16.3413179,16.140024 15.0095503,15.4608225 13.76,15.85 L9.85,16.8 C9.2245278,16.8965197 8.66604769,17.2454335 8.30502268,17.7652339 C7.94399767,18.2850343 7.81204887,18.9301936 7.94,19.55 C9.50666667,25.15 11.1,30.7466667 12.72,36.34 C13.1425849,37.575748 14.4757198,38.2467592 15.72,37.85 L19.37,36.96 C20.5463354,36.6641927 21.2705113,35.4824088 21,34.3 C20.64,32.92 20.29,31.53 19.93,30.14 C18.6,30.45 17.28,30.76 15.93,31.14 L14.49,25.8 C18.21,24.9 21.9333333,24.0566667 25.66,23.27 C26.46,26.7433333 27.27,30.2133333 28.09,33.68 C28.671971,37.2735348 26.4913996,40.7393152 23,41.77 Z" id="Path"></path>
                <path d="M56.68,15.26 C57.16,18.99 55.85,21.43 53.68,23.05 L54.55,23.59 C56.8266024,25.0883974 58.3351451,27.506449 58.68,30.21 C58.91,31.92 59.14,33.62 59.38,35.33 C57.12,35.5966667 54.86,35.8933333 52.6,36.22 C52.35,34.68 52.11,33.14 51.86,31.6 C51.5712666,29.6663528 50.3585305,27.9946427 48.61,27.12 L46.22,25.76 L42.28,26.4 C42.97,30.1 43.65,33.8 44.35,37.5 C42.09,37.88 39.8366667,38.28 37.59,38.7 C35.33,28.0333333 33.1366667,17.34 31.01,6.62 C35.01,5.88 39.01,5.19 43.01,4.62 C49.16,3.62 55.35,4.72 56.24,11.74 C56.36,12.88 56.52,14.07 56.68,15.26 Z M45.59,20.26 C49.74,19.63 49.59,16.8 49.46,16.19 C49.28,15.04 49.11,13.89 48.93,12.73 C48.84,12.14 48.16,9.34 43.87,9.99 L39.44,10.71 C40.0466667,14.1166667 40.6633333,17.53 41.29,20.95 L45.59,20.26 Z" id="Shape" fill-rule="nonzero"></path>
                <path d="M81.88,25 C79.05,25.16 76.21,25.35 73.38,25.57 C73.62,28.33 73.8633333,31.09 74.11,33.85 C71.8433333,34.03 69.58,34.23 67.32,34.45 C66.3733333,25.85 65.4433333,17.2433333 64.53,8.63 C64.15,5.2 67.53,1.48 71.3,1.18 C74.3,0.94 77.39,0.73 80.44,0.57 C84.25,0.35 88.07,3.57 88.18,7.04 C88.5066667,15.7066667 88.84,24.3533333 89.18,32.98 C86.91,33.06 84.65,33.16 82.38,33.29 L81.88,25 Z M81.55,19.5 C81.33,15.75 81.1,12 80.88,8.24 C80.7957282,7.62247698 80.4685905,7.06408671 79.9711218,6.68863861 C79.4736531,6.31319051 78.8469613,6.15170948 78.23,6.24 C76.92,6.32 75.6,6.41 74.29,6.51 C73.6624746,6.5044438 73.0594655,6.75334113 72.618556,7.19990336 C72.1776464,7.64646559 71.9364506,8.25259625 71.95,8.88 C72.2633333,12.62 72.5966667,16.3633333 72.95,20.11 C75.79,19.85 78.67,19.65 81.55,19.49 L81.55,19.5 Z" id="Shape" fill-rule="nonzero"></path>
                <path d="M104,21.48 L104,32.76 C101.73,32.76 99.47,32.76 97.2,32.76 C97.0533333,21.86 96.9066667,10.9633333 96.76,0.07 C100.76,0.0233333333 104.76,0.0233333333 108.76,0.07 C114.93,0.18 120.76,2.37 120.39,9.44 C120.32,10.6 120.26,11.77 120.2,12.93 C119.78,20 114,21.58 108.2,21.48 L104,21.48 Z M108.4,16 C112.56,16.09 112.9,13.28 112.93,12.66 C112.93,11.5 113,10.33 113.04,9.17 C113.04,8.56 112.91,5.7 108.61,5.6 L104.16,5.6 C104.16,9.06 104.16,12.53 104.08,16 C105.52,16 107,16 108.4,16 Z" id="Shape" fill-rule="nonzero"></path>
                <path d="M143.83,21.52 C140.95,21.18 138.07,20.8766667 135.19,20.61 C134.73,25.1566667 134.26,29.7066667 133.78,34.26 C131.52,34.0533333 129.256667,33.8633333 126.99,33.69 C127.89,22.83 128.76,11.9666667 129.6,1.1 C132.09,1.28 134.6,1.49 137.08,1.73 C136.64,6.19666667 136.196667,10.6633333 135.75,15.13 C138.68,15.4 141.6,15.71 144.53,16.06 C145.09,11.6 145.66,7.15 146.21,2.7 C148.696667,2.98666667 151.19,3.32 153.69,3.7 C152.123333,14.4866667 150.503333,25.2733333 148.83,36.06 C146.57,35.7466667 144.31,35.4566667 142.05,35.19 C142.683333,30.6166667 143.276667,26.06 143.83,21.52 Z" id="Path"></path>
                <path d="M163.48,5.05 C165.97,5.45 168.48,5.89 170.94,6.35 C168.84,17.0833333 166.673333,27.81 164.44,38.53 C162.193333,38.11 159.94,37.7166667 157.68,37.35 C159.666667,26.59 161.6,15.8233333 163.48,5.05 Z" id="Path"></path>
                <path d="M195.14,19.57 C195.267951,18.9501936 195.136002,18.3050343 194.774977,17.7852339 C194.413952,17.2654335 193.855472,16.9165197 193.23,16.82 L189.32,15.87 C188.07045,15.4808225 186.738682,16.160024 186.32,17.4 C184.9,23.04 183.46,28.6733333 182,34.3 C181.867964,34.8940819 181.984463,35.5163179 182.322476,36.0223944 C182.66049,36.528471 183.190651,36.8744177 183.79,36.98 L187.44,37.87 C188.68428,38.2667592 190.017415,37.595748 190.44,36.36 C190.66,35.6 190.88,34.84 191.09,34.08 C193.41,34.68 195.71,35.29 198.02,35.94 L197.02,39.04 C195.96,42.35 191.63,44.65 188.24,43.78 C185.52,43.1133333 182.79,42.4466667 180.05,41.78 C176.512663,40.7717146 174.296146,37.2683262 174.9,33.64 C176.373333,27.4133333 177.82,21.18 179.24,14.94 C179.99,11.57 184.41,9.05 188.24,9.94 C191.26,10.6066667 194.283333,11.3466667 197.31,12.16 C201.09,13.16 203.78,17.38 202.75,20.69 C202.43,21.69 202.12,22.76 201.8,23.79 C199.4,23.13 197,22.48 194.59,21.87 C194.72,21.09 194.93,20.33 195.14,19.57 Z" id="Path"></path>
            </g>
            <path d="M142.75,41.57 L147.11,50.4 C147.402185,50.9742358 147.953116,51.3725441 148.59,51.47 L158.34,52.89 C159.421326,53.101609 160.127823,54.1479399 159.92,55.23 C159.851786,55.6040874 159.678342,55.9509765 159.42,56.23 L152.36,63.1 C151.910444,63.5554609 151.705993,64.1985508 151.81,64.83 L153.47,74.54 C153.534995,75.0664577 153.388185,75.5971716 153.061869,76.0153817 C152.735552,76.4335919 152.256462,76.7050378 151.73,76.77 C151.357871,76.8200084 150.979226,76.7609538 150.64,76.6 L141.92,72 C141.345773,71.704559 140.664227,71.704559 140.09,72 L131.38,76.58 C130.894995,76.802744 130.34108,76.822398 129.841508,76.6345889 C129.341936,76.4467798 128.938151,76.0670882 128.72,75.58 C128.561176,75.2329485 128.498989,74.8494572 128.54,74.47 L130.21,64.76 C130.311429,64.1269072 130.10318,63.4835662 129.65,63.03 L122.59,56.16 C122.092496,55.6271374 121.924337,54.8657852 122.151121,54.1729495 C122.377905,53.4801138 122.963706,52.9655533 123.68,52.83 L133.42,51.41 C134.057834,51.320935 134.609215,50.9195895 134.89,50.34 L139.25,41.51 C139.507096,41.0457013 139.938194,40.7026284 140.44836,40.5563309 C140.958525,40.4100335 141.50592,40.4725092 141.97,40.73 C142.30639,40.9278969 142.577529,41.2198923 142.75,41.57 Z" id="Shape" fill="#FFFFFF" fill-rule="nonzero"></path>
            <path d="M108.11,59.87 L110.86,65.44 C111.039493,65.8056601 111.387127,66.0598442 111.79,66.12 L117.94,67.01 C118.599988,67.1319224 119.04318,67.7568231 118.94,68.42 C118.900637,68.6866999 118.774045,68.932851 118.58,69.12 L114.13,73.46 C113.83742,73.741626 113.702704,74.1495158 113.77,74.55 L114.77,80.68 C114.828095,81.0023689 114.755204,81.3345946 114.567486,81.6030318 C114.379767,81.871469 114.092729,82.0539415 113.77,82.11 C113.508116,82.1521346 113.239611,82.1137767 113,82 L107.5,79.11 C107.143806,78.9197775 106.716194,78.9197775 106.36,79.11 L100.88,82 C100.277711,82.3171993 99.5323192,82.0895647 99.21,81.49 C99.0809252,81.248108 99.0385761,80.9693096 99.09,80.7 L100.09,74.57 C100.16163,74.1710855 100.030478,73.7626415 99.74,73.48 L95.29,69.14 C95.0560962,68.9089162 94.9244507,68.593802 94.9244507,68.265 C94.9244507,67.936198 95.0560962,67.6210838 95.29,67.39 C95.4768144,67.1847922 95.7266036,67.0475841 96,67 L102.14,66.11 C102.545652,66.0566963 102.896193,65.8003868 103.07,65.43 L105.83,59.86 C105.94256,59.5535555 106.172328,59.3044294 106.468688,59.1675036 C106.765048,59.0305778 107.103686,59.0170858 107.41,59.13 C107.741643,59.2604819 107.99813,59.5316249 108.11,59.87 Z" id="Shape" fill="#FFFFFF" fill-rule="nonzero"></path>
            <path d="M177.11,59.87 L179.86,65.44 C180.039493,65.8056601 180.387127,66.0598442 180.79,66.12 L186.94,67.01 C187.268411,67.0545495 187.565322,67.2287122 187.764474,67.493622 C187.963627,67.7585318 188.048444,68.0921405 188,68.42 C187.960637,68.6866999 187.834045,68.932851 187.64,69.12 L183.19,73.46 C182.89742,73.741626 182.762704,74.1495158 182.83,74.55 L183.83,80.68 C183.888095,81.0023689 183.815204,81.3345946 183.627486,81.6030318 C183.439767,81.871469 183.152729,82.0539415 182.83,82.11 C182.548749,82.1651136 182.257185,82.1264725 182,82 L176.5,79.11 C176.143806,78.9197775 175.716194,78.9197775 175.36,79.11 L169.88,82 C169.277711,82.3171993 168.532319,82.0895647 168.21,81.49 C168.080925,81.248108 168.038576,80.9693096 168.09,80.7 L169.09,74.57 C169.16163,74.1710855 169.030478,73.7626415 168.74,73.48 L164.29,69.14 C164.056096,68.9089162 163.924451,68.593802 163.924451,68.265 C163.924451,67.936198 164.056096,67.6210838 164.29,67.39 C164.476814,67.1847922 164.726604,67.0475841 165,67 L171.14,66.11 C171.545652,66.0566963 171.896193,65.8003868 172.07,65.43 L174.83,59.86 C174.94256,59.5535555 175.172328,59.3044294 175.468688,59.1675036 C175.765048,59.0305778 176.103686,59.0170858 176.41,59.13 C176.741643,59.2604819 176.99813,59.5316249 177.11,59.87 Z" id="Shape" fill="#FFFFFF" fill-rule="nonzero"></path>
            <path d="M110.15,191.71 C110.53,194.32 108.5,195.18 106.24,195.44 C104.77,195.61 103.3,195.78 101.82,195.97 C101,191.97 100.263333,187.97 99.61,183.97 L104.31,183.42 C106.7,183.16 109.05,183.58 109.38,186.19 C109.62,188.023333 109.876667,189.863333 110.15,191.71 Z M106.55,186.45 C106.55,186.23 106.27,185.19 104.55,185.37 L102.79,185.57 C103.21,188.27 103.663333,190.963333 104.15,193.65 L105.84,193.46 C107.45,193.28 107.38,192.22 107.34,192 C107.113333,190.153333 106.85,188.303333 106.55,186.45 Z" id="Shape" fill="#FFFFFF" fill-rule="nonzero"></path>
            <path d="M114.65,187.46 C116.19,187.33 117.71,187.21 119.25,187.11 C119.31,187.77 119.37,188.44 119.44,189.11 C117.92,189.22 116.44,189.33 114.88,189.46 C115,190.46 115.12,191.46 115.25,192.53 C117.01,192.38 118.77,192.25 120.53,192.13 C120.59,192.79 120.66,193.45 120.73,194.13 C118.063333,194.31 115.42,194.523333 112.8,194.77 C112.32,191.41 111.88,188.06 111.49,184.7 C111.473595,184.103609 111.701219,183.52634 112.12025,183.101647 C112.539281,182.676953 113.113442,182.441602 113.71,182.45 C115.71,182.28 117.71,182.13 119.63,182 C119.68,182.67 119.74,183.34 119.79,184 L114.79,184.37 C114.52,184.37 114.32,184.59 114.35,184.82 C114.48,185.69 114.56,186.58 114.65,187.46 Z" id="Shape" fill="#FFFFFF" fill-rule="nonzero"></path>
            <path d="M122.54,190.27 L125.28,190.12 C125.28,190.4 125.28,190.68 125.35,190.96 C125.369089,191.20039 125.488229,191.421721 125.678374,191.570034 C125.868518,191.718346 126.112196,191.780013 126.35,191.74 L127.82,191.67 C128.055043,191.675533 128.282103,191.584597 128.44835,191.41835 C128.614597,191.252103 128.705533,191.025043 128.7,190.79 L128.7,190.53 C128.58,188.16 122.5,189.01 122.2,185.47 C122.2,185.1 122.15,184.74 122.12,184.37 C122.18609,182.930873 123.340634,181.780669 124.78,181.72 L128.23,181.56 C129.677334,181.51194 130.933739,182.549653 131.16,183.98 C131.16,184.34 131.16,184.71 131.16,185.07 L128.37,185.17 C128.37,184.92 128.37,184.66 128.37,184.41 C128.302634,183.923455 127.857604,183.580782 127.37,183.64 L125.85,183.71 C125.614887,183.701922 125.386328,183.78832 125.215349,183.949904 C125.04437,184.111489 124.945208,184.334806 124.94,184.57 L124.94,184.78 C125.09,186.93 131.24,186.02 131.39,189.84 L131.45,191.04 C131.382661,192.440863 130.278936,193.570355 128.88,193.67 L125.6,193.82 C124.178351,193.849526 122.943561,192.847316 122.68,191.45 C122.61,191.06 122.58,190.67 122.54,190.27 Z" id="Shape" fill="#FFFFFF" fill-rule="nonzero"></path>
            <path d="M133.64,181.35 L136.46,181.29 C136.54,185.34 136.61,189.4 136.7,193.45 L134.02,193.5 C133.88,189.453333 133.753333,185.403333 133.64,181.35 Z" id="Shape" fill="#FFFFFF" fill-rule="nonzero"></path>
            <path d="M145.15,193.43 L141.88,193.43 C140.472987,193.387355 139.314628,192.31021 139.17,190.91 L139.11,183.81 C139.258415,182.374418 140.466769,181.282584 141.91,181.28 L145.35,181.28 C146.791762,181.305022 147.982382,182.413679 148.11,183.85 L148.11,185.05 L145.32,185.05 C145.32,184.75 145.32,184.46 145.32,184.17 C145.282712,183.681928 144.858282,183.315578 144.37,183.35 L142.87,183.35 C142.628915,183.319145 142.385699,183.388231 142.196832,183.541213 C142.007966,183.694195 141.889881,183.917763 141.87,184.16 C141.87,186.306667 141.87,188.456667 141.87,190.61 C141.882811,190.840078 141.987419,191.05539 142.160372,191.207664 C142.333325,191.359938 142.560152,191.436433 142.79,191.42 L144.24,191.42 C144.470907,191.439331 144.699985,191.365751 144.876444,191.215572 C145.052904,191.065394 145.162164,190.851027 145.18,190.62 L145.18,189.03 L143.62,189.03 C143.62,188.35 143.62,187.67 143.62,187.03 C145.07,187.03 146.51,187.03 147.95,187.09 C147.95,188.4 147.88,189.72 147.84,191.04 C147.626801,192.375554 146.501364,193.375477 145.15,193.43 Z" id="Shape" fill="#FFFFFF" fill-rule="nonzero"></path>
            <path d="M155.92,193.76 C156.14,190.69 156.35,187.62 156.53,184.55 C156.53,184.32 156.53,183.69 155.43,183.64 C154.66,183.64 153.91,183.57 153.15,183.55 C153.003333,186.883333 152.833333,190.24 152.64,193.62 L149.96,193.53 C150.126667,189.49 150.276667,185.45 150.41,181.41 C152.22,181.47 154.03,181.53 155.84,181.61 C158.02,181.71 159.49,182.67 159.36,184.48 C159.14,187.62 158.893333,190.76 158.62,193.9 L155.92,193.76 Z" id="Shape" fill="#FFFFFF" fill-rule="nonzero"></path>
            <path d="M164.18,187.15 L168.79,187.51 L168.55,189.51 L163.98,189.15 C163.88,190.15 163.77,191.15 163.66,192.23 C165.43,192.35 167.19,192.5 168.96,192.65 L168.69,194.65 C166.04,194.41 163.39,194.21 160.76,194.04 C161.09,190.68 161.38,187.31 161.65,183.95 C161.859446,182.71946 163.0158,181.883327 164.25,182.07 C166.25,182.21 168.19,182.37 170.18,182.54 C170.11,183.21 170.04,183.87 169.96,184.54 C168.3,184.4 166.64,184.26 164.96,184.14 C164.713104,184.102997 164.48036,184.265479 164.43,184.51 C164.37,185.38 164.28,186.27 164.18,187.15 Z" id="Shape" fill="#FFFFFF" fill-rule="nonzero"></path>
            <path d="M181.21,188.59 C181.074599,189.758089 180.269245,190.73937 179.15,191.1 L179.41,191.38 C180.106096,192.117016 180.400707,193.14629 180.2,194.14 C180.08,194.77 179.95,195.4 179.82,196.04 C178.9,195.92 177.99,195.81 177.07,195.71 C177.18,195.13 177.28,194.56 177.38,193.99 C177.520618,193.273868 177.259997,192.537997 176.7,192.07 L175.96,191.35 L174.39,191.18 C174.18,192.57 173.96,193.96 173.73,195.34 L171,195.07 C171.6,191.07 172.136667,187.046667 172.61,183 C174.15,183.14 175.7,183.3 177.26,183.46 C179.65,183.72 181.88,184.66 181.44,187.27 C181.37,187.7 181.29,188.15 181.21,188.59 Z M176.4,189.33 C178.05,189.51 178.32,188.48 178.35,188.25 L178.56,186.96 C178.56,186.74 178.65,185.68 176.97,185.5 L175.24,185.31 L174.7,189.15 L176.4,189.33 Z" id="Shape" fill="#FFFFFF" fill-rule="nonzero"></path>
        </g>
    </g>
</svg>